<svg xmlns="http://www.w3.org/2000/svg" viewBox="0 0 259 249"><defs><style>.cls-1{fill:#ff1717;}.cls-2{fill:#fff;}</style></defs><title>Asset 1</title><g id="Layer_2" data-name="Layer 2"><g id="Layer_3" data-name="Layer 3"><path d="M99.88,214.19s-.13-15.5-1.71-21.5-2.9-8.5-3.23-13.84a20.72,20.72,0,0,1,1.25-8.91s3.43,5.21,8.9,4.88,7.39-3.89,8.84-4.48,1.91,2.81,5.3,1.23-.55-7.54.54-10,11.37-1.22,14.8-9.92,2.77-24.66,0-27.89,1.84-14-1.78-21.16-10.49-11.15-24.86-14c0,0,11.08-3,10.68-6.86s-12.86-8.3-23.21-6.65S81.88,91.29,77.66,89.57s-8.57-15.3-22.94-18.86c0,.8.66,11.41-2,15.56S35.2,88.65,33,95.7s2.11,11.15,2.11,11.15H20.76s9.37,5.2,12.33,11.93-7.91,16.81-7.91,24.59,8,24.4,17.94,25.06,10.81-.79,10.81-.79S41,176.6,43.51,186.1s16.85,12.39,25.5,7.2c0,0,3.61,2.87,5.89,1.88s2.62-12.56,6.33-12,4.5,3.66,4,7-4.3,11.82,1.24,12.9,5.83-15.67,5.83-15.67,4.35,20.85,4.65,26.77Z"/><path d="M81.88,91s-8.33-52.15,31.26-74.11c0,0-24.2,5.14-34.49,32.57-9.72,25.93-2.57,47.74-2.57,47.74Z"/><polygon points="134.76 125.57 174.52 125.57 174.52 162.89 155.86 162.89 155.86 142.06 136.21 142.98 134.76 125.57"/><path d="M129.5,249C58.09,249,0,193.15,0,124.5S58.09,0,129.5,0,259,55.85,259,124.5,200.91,249,129.5,249Zm0-246C59.75,3,3,57.5,3,124.5S59.75,246,129.5,246,256,191.5,256,124.5,199.25,3,129.5,3Z"/><path d="M129.5,242C62.09,242,7.24,189.29,7.24,124.5S62.09,7,129.5,7,251.76,59.71,251.76,124.5,196.91,242,129.5,242Zm0-234C62.64,8,8.24,60.26,8.24,124.5S62.64,241,129.5,241s121.26-52.26,121.26-116.5S196.36,8,129.5,8Z"/><path d="M71.24,212.85a1.66,1.66,0,0,1,1.85-2.17c5.42.88,30.55,3.79,65.91,1.82,40.14-2.24,54.5-3.5,55.5-5.5s-12.57-5.91-12.57-5.91l.59-2s9.57,1.48,12.94,2.82c2.47,1,11.63,4.69,11.24,8.58s-18.4,6-27.76,6.86-33.69,2.64-51.43,2.84c-17.51.19-39.45-1.54-55.17-6.28a1.67,1.67,0,0,1-1.06-.95S71.25,212.89,71.24,212.85Z"/><path d="M182.9,211.05s-1.19-16.81,5.44-28.58c5.81-10.32,8.2-12.88,10.1-18.37a1.9,1.9,0,0,0-1.8-2.5H162.32s-25.81.5-43.41,4.85a234.2,234.2,0,0,0,35.8,2.27c19.48-.29,33.43-.69,33.43-.69s-15.23,25.22-7.32,43.91Z"/><path d="M101.21,212.94s12.65-4.75,12.72-6.93-10.48-6.13-15.76-6.92v1.51s8.7,3,8.84,5.41-7.39,6.93-7.39,6.93"/><path d="M108.37,202.94s4-3.05,8-2.22,6.59,1.5,6.74,2.79-7.52,7.94-10.34,7.15a11.91,11.91,0,0,1-4.45-2.28l-1.73,1.49s3.91,3.06,6.53,3.56c2.2.41,12.53-5.57,15.9-8.87a1.63,1.63,0,0,0-.23-2.5,29.34,29.34,0,0,0-7.81-3.91c-5.44-1.73-8.65-.89-14.14,3.9Z"/><path d="M129,203s4.75-3.95,7.52-3.16,6.37,2.92,6.44,3.85-7.63,5.64-10.4,5.31-6.2-3-6.2-3l-2.7,2.11s4.75,5.32,9.23,5.33,16.75-7.18,16.88-9-9.23-9.42-13.52-9.42-10.87,5.86-10.87,5.86Z"/><path d="M144.65,200.34s7-5.47,8.18-5.27,12.88,5.05,13.07,6.64-11,9.77-13.27,11-8.83-4.29-8.83-4.29l1.78-2s4.23,3.15,6.79,2.18c2.24-.85,7.33-4.57,7.25-6-.05-.86-4.12-2.59-7.12-3-2.09-.3-5.87,2.64-5.87,2.64"/><path d="M158,198.4s8.06-5.35,9.69-5.39,9.5,7.07,11.58,9.24a1.57,1.57,0,0,1,0,1.7s-7.12,7.85-9.3,8-8.7-5.55-9.25-6.56l1.49-2.9s5,5,7.61,4.52c2.72-.54,4.82-2.27,5.21-3.78.3-1.15-6.59-5.17-8.57-5.17s-5.19,1.93-5.19,1.93Z"/><path d="M175.31,200.14s3.3-2.52,5.28-2.47,1.51-3.46,1.51-3.46-6,.49-9,4.55Z"/><path d="M176.86,205.81a8.14,8.14,0,0,0,4,2.74l.33,2.93a11.06,11.06,0,0,1-5.8-4.32Z"/><circle cx="113.14" cy="17.6" r="5.27"/><polygon points="84 33.4 85.71 37.62 84.52 38.8 82.7 34.38 84 33.4"/><circle cx="82.54" cy="32.27" r="2.24"/><circle cx="95.58" cy="44.79" r="2.24"/><polygon points="90.72 28.57 92.43 32.78 91.25 33.97 89.42 29.55 90.72 28.57"/><circle cx="89.27" cy="27.44" r="2.24"/><polygon points="99.28 33.35 93.55 33.58 94.02 32.02 98.8 31.8 99.28 33.35"/><circle cx="100.83" cy="32.37" r="2.24"/><polygon points="95.27 39.95 89.52 39.94 90.06 38.39 94.84 38.37 95.27 39.95"/><circle cx="96.85" cy="39.03" r="2.24"/><polygon points="96.88 23.31 98.02 27.72 96.68 28.74 95.46 24.12 96.88 23.31"/><circle cx="95.58" cy="22.01" r="2.24"/><path d="M87,45a11.48,11.48,0,0,0,6.56-.54l.49,1.87a11.65,11.65,0,0,1-4.45.89c-2.77.08-3.46-.54-3.46-.54Z"/><path class="cls-1" d="M63.69,189.13s-8.84,2.77-11.94-3,1.91-11.93,8-15.89S73.84,159,76.87,151.68s3.5-10.09,6.27-10.68,4.68,3.69,5.47,7.52a70.55,70.55,0,0,1,1.71,16.55c-.26,6.19-1.12,11.6-3.23,12.79s-5.27-3-9-.46S71.47,187.29,63.69,189.13Z"/><path class="cls-1" d="M76.18,137.18s1.24-2.28-4.7-4.55-12.31-7.12-17.9-12.07S37,113.88,37,113.88s5.35,5.79,3.64,13.62S31.51,139,32.7,145.62s5.93,15.62,16.61,16,20-8.6,22.82-11.5,5.34-5.79,5.19-7.65-1.48-.92-1.73-2.51A4,4,0,0,1,76.18,137.18Z"/><path class="cls-1" d="M78.52,129.92c-2.77,2-14.77-8.44-22.75-16.61s-15.36-6.66-17.47-11.74,4.55-6.92,8.38-7.52,9-1.91,10.41-4.22,1.72-10.74,3.37-11.47,14,13.85,16.48,21.23S83.8,126.16,78.52,129.92Z"/><path class="cls-1" d="M87.26,125.6c-3-1.12,1.88-11.27-2-20-3.36-7.59-1.9-16.42,5.08-22.06s15.19-5.34,16.78-2.87-7,5-6.43,9.3,17.31,3.56,24.63,11,6.25,13.49,2.59,16.16-15.35-.63-27.52,3.91S90.36,126.79,87.26,125.6Z"/><path class="cls-1" d="M87.75,133c.54-2.7,5.24-6.55,14-7s15.52-4.91,23.63-.44,3.56,9.61,4.16,15.15-1.68,9.39-4.75,10.68-10.38,4.65-13.85,12.16-10.34,6-12.77,2.84c-3.15-4.12-1.07-13.22-5.92-21.63S87.16,136,87.75,133Z"/><path d="M154.09,16.9v1.42a11.71,11.71,0,0,0-3.65.53,2.67,2.67,0,0,0-1.67,1.7,12.67,12.67,0,0,0-.43,3.87V60.49a12.41,12.41,0,0,0,.32,3.27,2,2,0,0,0,1.28,1.42,9,9,0,0,0,2.87.35h3.48a9.63,9.63,0,0,0,5.93-2A15.33,15.33,0,0,0,166.69,58a27.19,27.19,0,0,0,2.52-8.27h1.64c-.14,1.61-.22,3.69-.22,6.25,0,1.09,0,2.67.08,4.75s.18,4.24.42,6.46Q167.52,67,163,67t-8.1,0h-6.39c-2.65,0-5.46,0-8.45,0s-5.75.08-8.3.17V65.74a12.48,12.48,0,0,0,3.4-.56,2.49,2.49,0,0,0,1.53-1.71,14,14,0,0,0,.39-3.83V24.42a14,14,0,0,0-.39-3.87,2.57,2.57,0,0,0-1.56-1.7,10.29,10.29,0,0,0-3.37-.53V16.9l4.79.14q3,.08,6.43.07c2.08,0,4.12,0,6.14-.07Z"/><path d="M130.73,71.73l4.79.14q3,.07,6,.07,3.4,0,6.6-.07c2.13-.05,3.65-.07,4.55-.07q9.87,0,14.76,3.23a10.29,10.29,0,0,1,4.9,9.12,12.87,12.87,0,0,1-1,4.86A12.25,12.25,0,0,1,168,93.56a17.33,17.33,0,0,1-6.5,3.34,36.85,36.85,0,0,1-10.37,1.24h-6.81V96.72h6.1c2.8,0,4.91-.53,6.36-1.6a8,8,0,0,0,3-4.26,20.34,20.34,0,0,0,.82-5.93c0-3.74-.67-6.64-2-8.7s-3.6-3.08-6.82-3.08c-1.84,0-3,.4-3.58,1.2s-.82,2.44-.82,4.9v35.22a14,14,0,0,0,.39,3.83,2.49,2.49,0,0,0,1.53,1.71,12.49,12.49,0,0,0,3.41.56V122c-1.28-.09-2.89-.15-4.83-.17s-3.91,0-5.89,0q-3.42,0-6.43,0c-2,0-3.61.08-4.79.17v-1.42a12.64,12.64,0,0,0,3.41-.56,2.5,2.5,0,0,0,1.52-1.71,14,14,0,0,0,.39-3.83V79.25a14,14,0,0,0-.39-3.87,2.55,2.55,0,0,0-1.56-1.7,10.29,10.29,0,0,0-3.37-.53Zm13.42,25.2c2,0,3.8.14,5.29.28l3.94.4c1.13.11,2.15.2,3.05.24q6.47.57,9.55,2.77a10.3,10.3,0,0,1,4,6.61l1.63,7.31a14,14,0,0,0,1.35,4,2.29,2.29,0,0,0,2.06,1.14,3.25,3.25,0,0,0,1.53-.46,7,7,0,0,0,1.31-1.17l1,.85a11.81,11.81,0,0,1-4.12,3.16,13.33,13.33,0,0,1-5.33,1,11.31,11.31,0,0,1-6.32-1.64c-1.65-1.08-2.74-3.1-3.26-6l-1.28-7.1a36.85,36.85,0,0,0-1.21-5.22,9.05,9.05,0,0,0-1.95-3.55A4.54,4.54,0,0,0,152,98.14h-7.67Z"/><path d="M181.29,43.32l1.28,0c.54,0,1.07,0,1.61,0s1.19,0,1.76,0h1.22a6,6,0,0,1,3.52.83,2.54,2.54,0,0,1,1.17,2.15,2.65,2.65,0,0,1-.4,1.35,3.56,3.56,0,0,1-1.23,1.21,5.93,5.93,0,0,1-2.17.78v0a7.67,7.67,0,0,1,2.83.65,3.51,3.51,0,0,1,1.5,1.23,2.72,2.72,0,0,1,.46,1.5,3.09,3.09,0,0,1-1.4,2.74,6.77,6.77,0,0,1-3.84,1l-1.32,0q-.87,0-2.07,0h-1.64c-.54,0-1,0-1.28.05v-.38a3.86,3.86,0,0,0,.91-.15.68.68,0,0,0,.41-.46,3.8,3.8,0,0,0,.1-1V45.33a3.84,3.84,0,0,0-.1-1,.68.68,0,0,0-.42-.45,2.82,2.82,0,0,0-.9-.14Zm5.62.38c-.49,0-.81.1-1,.32a2.68,2.68,0,0,0-.22,1.31v9.42A2.27,2.27,0,0,0,186,56a1.44,1.44,0,0,0,1.07.29,2.33,2.33,0,0,0,2-.86,4.14,4.14,0,0,0,.64-2.46,3.25,3.25,0,0,0-.73-2.26,3.15,3.15,0,0,0-2.43-.8h-1.61v-.32h1.63a2,2,0,0,0,1.37-.43,2.24,2.24,0,0,0,.66-1.14,5.83,5.83,0,0,0,.19-1.53,4.12,4.12,0,0,0-.43-2.12A1.54,1.54,0,0,0,186.91,43.7Z"/><path d="M187.63,69.6l4.62,11.89a2.17,2.17,0,0,0,.6.94,1.15,1.15,0,0,0,.6.28v.38c-.38,0-.83,0-1.34,0h-3.2c-.52,0-.93,0-1.24,0v-.38a1.88,1.88,0,0,0,1.23-.33c.17-.2.13-.62-.13-1.27l-3.23-8.83.35-.5L183,79.31a6.14,6.14,0,0,0-.52,2.12,1,1,0,0,0,.46,1,2.87,2.87,0,0,0,1.22.3v.38c-.42,0-.82,0-1.2,0h-2a5.94,5.94,0,0,0-.65,0v-.38a1.53,1.53,0,0,0,.81-.52,4.35,4.35,0,0,0,.82-1.48l4.33-11.11.66,0Zm1.33,8V78H183.3l.19-.38Z"/><path d="M187.16,95.33v.38a2.82,2.82,0,0,0-.92.15.64.64,0,0,0-.41.45,4.23,4.23,0,0,0-.1,1v9.42a3.72,3.72,0,0,0,.11,1,.62.62,0,0,0,.41.45,3.25,3.25,0,0,0,.91.16v.38c-.34,0-.77-.05-1.29-.05h-3.3c-.54,0-1,0-1.28.05v-.38a3.33,3.33,0,0,0,.91-.16.64.64,0,0,0,.41-.45,3.8,3.8,0,0,0,.1-1V97.35a3.79,3.79,0,0,0-.1-1,.68.68,0,0,0-.42-.45,2.78,2.78,0,0,0-.9-.15v-.38l1.28,0,1.72,0,1.58,0Zm6.57,0v.36a4.62,4.62,0,0,0-1.3.54A5.67,5.67,0,0,0,191,97.52l-3.57,4.25,1.1-1.57,4.52,7a3.2,3.2,0,0,0,.57.7,2.63,2.63,0,0,0,.8.46v.38c-.44,0-.94-.05-1.48-.05h-2.45c-.38,0-.87,0-1.45.05v-.38a1.61,1.61,0,0,0,.94-.22c.11-.12.06-.34-.14-.64l-2.76-4.47a3.67,3.67,0,0,0-.47-.65,1.1,1.1,0,0,0-.42-.3,1.57,1.57,0,0,0-.55-.11v-.4a2.72,2.72,0,0,0,1.49-.45,7.67,7.67,0,0,0,1.44-1.33l1.12-1.35a3.51,3.51,0,0,0,.84-1.48.94.94,0,0,0-.24-1,1.73,1.73,0,0,0-1.13-.37v-.36l1.33,0,1.48,0C192.68,95.39,193.28,95.37,193.73,95.33Z"/><path d="M191.45,121.44c0,.56-.08,1.1-.1,1.62s0,.92,0,1.19,0,.5,0,.73,0,.42,0,.57h-.44a7.27,7.27,0,0,0-.59-2.2,2.41,2.41,0,0,0-1-1.14,3.25,3.25,0,0,0-1.5-.33h-.77a2.57,2.57,0,0,0-.85.1.55.55,0,0,0-.37.37,3,3,0,0,0-.1.88v9.88a3,3,0,0,0,.1.87.56.56,0,0,0,.37.38,2.57,2.57,0,0,0,.85.1H188a3.1,3.1,0,0,0,1.51-.37,3,3,0,0,0,1.12-1.27,8,8,0,0,0,.71-2.41h.44c0,.41-.06.94-.06,1.6,0,.29,0,.7,0,1.23s.05,1.09.11,1.66c-.64,0-1.37-.05-2.18-.05h-6.14c-.8,0-1.54,0-2.22.05v-.38a3.33,3.33,0,0,0,.91-.16.64.64,0,0,0,.41-.45,3.8,3.8,0,0,0,.1-1v-9.42a3.79,3.79,0,0,0-.1-1,.68.68,0,0,0-.42-.45,2.78,2.78,0,0,0-.9-.15v-.38l2.22,0,2.26,0h3.7C190.21,121.48,190.87,121.47,191.45,121.44Zm-3,6.5v.38h-3.32v-.38Zm.55-2.51c0,.73-.07,1.28-.07,1.66s0,.72,0,1,0,.67,0,1.05.05.93.1,1.65h-.44a4.55,4.55,0,0,0-.35-1.24,2.37,2.37,0,0,0-.73-.92,2.07,2.07,0,0,0-1.24-.35v-.38a1.74,1.74,0,0,0,1.22-.42,2.79,2.79,0,0,0,.7-1,4.74,4.74,0,0,0,.34-1.1Z"/><path d="M186,147a4.9,4.9,0,0,1,1.73.24,7.81,7.81,0,0,1,1,.5l.37.2a.61.61,0,0,0,.28.07q.3,0,.42-.84h.43c0,.24,0,.53,0,.87s0,.77,0,1.32,0,1.26,0,2.15h-.44a6.4,6.4,0,0,0-.45-1.92,4.08,4.08,0,0,0-1.08-1.53,2.51,2.51,0,0,0-1.7-.6,2.2,2.2,0,0,0-1.5.51,1.8,1.8,0,0,0-.59,1.43,2.24,2.24,0,0,0,.38,1.3,4.34,4.34,0,0,0,1.11,1l1.78,1.24a16,16,0,0,1,1.63,1.18,4.86,4.86,0,0,1,1.16,1.33,3.4,3.4,0,0,1,.44,1.76,3.17,3.17,0,0,1-.66,2.07,3.89,3.89,0,0,1-1.72,1.23,6.44,6.44,0,0,1-2.33.41,6.27,6.27,0,0,1-1.88-.23,6.83,6.83,0,0,1-1.18-.48,1.46,1.46,0,0,0-.65-.26c-.2,0-.34.28-.41.83h-.44c0-.3,0-.65.05-1.06s0-.93,0-1.59,0-1.47,0-2.48h.44a9.24,9.24,0,0,0,.43,2.35,3.87,3.87,0,0,0,1.08,1.76,2.81,2.81,0,0,0,1.95.66,2.59,2.59,0,0,0,1.67-.53,1.88,1.88,0,0,0,.68-1.59,2.59,2.59,0,0,0-.79-1.95,14.52,14.52,0,0,0-2.05-1.59c-.6-.39-1.16-.78-1.68-1.18a4.79,4.79,0,0,1-1.24-1.35,3.35,3.35,0,0,1-.47-1.8,3.12,3.12,0,0,1,.6-2,3.61,3.61,0,0,1,1.58-1.14A6,6,0,0,1,186,147Z"/><path d="M141.87,140.9a75.67,75.67,0,0,0-.38,23.86.5.5,0,0,0,1,.1c1.4-4.15,4.31-14.56,2-24.05A1.31,1.31,0,0,0,141.87,140.9Z"/><path d="M148.6,140.9a75.36,75.36,0,0,0-.38,23.86.5.5,0,0,0,1,.1c1.4-4.15,4.31-14.56,2-24.05A1.31,1.31,0,0,0,148.6,140.9Z"/><path class="cls-2" d="M75,139.7c-3.11-3-12-9.4-22.78,1.76a.12.12,0,0,0,.11.2,51.14,51.14,0,0,1,22.19-1A.54.54,0,0,0,75,139.7Z"/><path class="cls-2" d="M82.7,141.88a23.83,23.83,0,0,0-2.34,15.7.17.17,0,0,0,.3.08A19.69,19.69,0,0,0,84,142.06.69.69,0,0,0,82.7,141.88Z"/><path class="cls-2" d="M78.85,128.79c.9-5.07,1.63-18.18-12.8-24.35a.57.57,0,0,0-.7.83c2.59,3.77,9.2,13.92,12.43,23.6A.55.55,0,0,0,78.85,128.79Z"/><path class="cls-2" d="M86.93,123.35c.7-5,3.49-15.64,14.58-18.07a.16.16,0,0,1,.17.25c-1.4,1.83-8.29,10.91-13.47,18.32A.71.71,0,0,1,86.93,123.35Z"/><path class="cls-2" d="M88.54,132.86c3.2-.66,11.37-1.25,12.3,9.74a.16.16,0,0,1-.26.13c-1.27-1.36-6.49-6.68-12.12-9.07A.42.42,0,0,1,88.54,132.86Z"/><path class="cls-2" d="M158.32,142.11A51.62,51.62,0,0,1,172,128.51a.1.1,0,0,1,.15.12,37.55,37.55,0,0,1-13.72,13.61C158.37,142.29,158.26,142.2,158.32,142.11Z"/><path class="cls-2" d="M171.25,142.34c-1.43-.87-7.13-4.71-12.56-13.5-.06-.09,0-.22.14-.16a35,35,0,0,1,12.56,13.51C171.45,142.28,171.34,142.4,171.25,142.34Z"/><path class="cls-2" d="M158.24,158.29a44.08,44.08,0,0,1,12.55-11.62.11.11,0,0,1,.16.15,37.78,37.78,0,0,1-12.4,11.81A.24.24,0,0,1,158.24,158.29Z"/><path class="cls-2" d="M170.32,159.56c-1.65-.95-6.52-4.23-11.33-12.16a.14.14,0,0,1,.18-.19,36.65,36.65,0,0,1,11.39,12.08A.19.19,0,0,1,170.32,159.56Z"/><path class="cls-2" d="M137.75,129.51a30.56,30.56,0,0,0,0,11.18,37,37,0,0,0,.64-6.14A27.79,27.79,0,0,0,137.75,129.51Z"/><path class="cls-2" d="M143,128.88a30.56,30.56,0,0,0,0,11.18,37,37,0,0,0,.64-6.13A28,28,0,0,0,143,128.88Z"/><path class="cls-2" d="M148,128.72a30.56,30.56,0,0,0,0,11.18,37,37,0,0,0,.64-6.14A26.81,26.81,0,0,0,148,128.72Z"/><path class="cls-2" d="M153.11,128.72a30.56,30.56,0,0,0,0,11.18,37,37,0,0,0,.64-6.14A27.79,27.79,0,0,0,153.11,128.72Z"/><path class="cls-2" d="M139.63,129.44s-.5,4.92.31,6.12-.07,5.1-.07,5.1,2.19-3.56,1.78-5.48S140.11,132.44,139.63,129.44Z"/><path class="cls-2" d="M144.71,128.86s-.5,4.92.31,6.12-.07,5.1-.07,5.1,2.19-3.56,1.78-5.47S145.19,131.87,144.71,128.86Z"/><path class="cls-2" d="M149.56,128.7s-.5,4.92.3,6.12-.07,5.1-.07,5.1,2.19-3.56,1.78-5.48S150,131.71,149.56,128.7Z"/><path class="cls-2" d="M154.59,128.7s-.51,4.92.3,6.12-.07,5.1-.07,5.1,2.19-3.56,1.78-5.48S155.06,131.71,154.59,128.7Z"/><path class="cls-2" d="M164.31,160.82c.94.51,2.37-.61,1.94-1.28s-1.22.06-1.42-.33.33-1-.28-1.77S161.77,159.45,164.31,160.82Z"/><path class="cls-2" d="M163.39,142.6c.22,1.05,2,1.4,2.24.64s-.85-.88-.68-1.29,1-.43,1.16-1.37S162.78,139.78,163.39,142.6Z"/><path class="cls-2" d="M164.48,130.31c.22,1.05,2,1.4,2.24.64s-.85-.88-.68-1.29,1-.43,1.16-1.37S163.87,127.49,164.48,130.31Z"/><path class="cls-2" d="M165.05,145.53c-.77-.74-2.44,0-2.22.72s1.2.26,1.29.69-.6.91-.21,1.79S167.13,147.53,165.05,145.53Z"/><circle class="cls-2" cx="95.92" cy="20.9" r="0.63"/><circle class="cls-2" cx="89.6" cy="26.36" r="0.63"/><circle class="cls-2" cx="101.73" cy="31.5" r="0.63"/><path class="cls-2" d="M114.2,15.33c1.22.79.8,1.3,1.84,1.42s.66-2.26-.7-2.79S112.38,14.14,114.2,15.33Z"/></g></g></svg>